<svg viewBox="0 0 12 10" fill="none" xmlns="http://www.w3.org/2000/svg" preserveAspectRatio="xMidYMid meet">
<path d="M3.711 5.62916C4.3478 5.12196 4.9654 4.60836 5.607 4.12676C7.1478 2.96996 8.791 1.98436 10.5702 1.23556C10.871 1.10916 11.1798 1.00036 11.4838 0.881962C11.5558 0.854762 11.631 0.832361 11.679 0.917161C11.7318 1.00676 11.671 1.05956 11.607 1.11236C10.679 1.87396 9.7398 2.62116 8.8262 3.39876C6.9334 5.01316 5.31579 6.86916 3.9942 8.97956C3.9846 8.99556 3.9734 9.01316 3.9622 9.02916C3.8838 9.14276 3.8134 9.15076 3.719 9.04996C3.4854 8.79876 3.2534 8.54596 3.0198 8.29476C2.1606 7.36356 1.3014 6.43236 0.443795 5.50276C0.275795 5.32196 0.277395 5.31076 0.459795 5.15396C1.0278 4.66756 1.5958 4.18116 2.1654 3.69476C2.2918 3.58596 2.343 3.59236 2.4358 3.72996C2.839 4.33156 3.2438 4.93316 3.647 5.53476C3.6678 5.56836 3.6934 5.60196 3.711 5.62916Z" />
</svg>
