<svg viewBox="0 0 12 12" fill="none" xmlns="http://www.w3.org/2000/svg" preserveAspectRatio="xMidYMid meet">
<path fill-rule="evenodd" clip-rule="evenodd" d="M11.3998 10.1023C11.054 11.1529 9.69958 11.677 8.73189 11.5897C7.41028 11.4702 5.97219 10.7691 4.88056 9.99707C3.27596 8.86218 1.77291 7.10683 0.897059 5.24396C0.278067 3.92764 0.139186 2.30892 1.05983 1.10907C1.40032 0.665567 1.76917 0.428882 2.32171 0.401256C3.08929 0.363924 3.19681 0.802949 3.46039 1.48687C3.65676 1.99832 3.91884 2.52022 4.06519 3.05033C4.33922 4.03963 3.38124 4.0807 3.26028 4.88931C3.18561 5.39926 3.80311 6.08319 4.08236 6.4468C4.62063 7.15497 5.27989 7.76238 6.02968 8.24097C6.45529 8.50902 7.14073 8.99209 7.62756 8.72554C8.37722 8.31489 8.30704 7.05083 9.35462 7.47866C9.89745 7.69966 10.4231 8.01848 10.9413 8.29772C11.7425 8.72853 11.7051 9.17502 11.3998 10.1023C11.6282 9.40947 11.1713 10.7952 11.3998 10.1023Z" />
</svg>
