<svg viewBox="0 0 22 16" fill="none" xmlns="http://www.w3.org/2000/svg" preserveAspectRatio="xMidYMid meet">
<path d="M10.9991 7.1075L20.5841 0.95C20.1987 0.66096 19.7308 0.503226 19.2491 0.5H2.74906C2.26736 0.503226 1.79942 0.66096 1.41406 0.95L10.9991 7.1075Z" />
<path d="M11.405 8.63031L11.2775 8.69031H11.2175C11.1484 8.72117 11.0751 8.74139 11 8.75031C10.9377 8.75816 10.8748 8.75816 10.8125 8.75031H10.7525L10.625 8.69031L0.575 2.19531C0.526984 2.37647 0.501789 2.56291 0.5 2.75031V13.2503C0.5 13.847 0.737053 14.4193 1.15901 14.8413C1.58097 15.2633 2.15326 15.5003 2.75 15.5003H19.25C19.8467 15.5003 20.419 15.2633 20.841 14.8413C21.2629 14.4193 21.5 13.847 21.5 13.2503V2.75031C21.4982 2.56291 21.473 2.37647 21.425 2.19531L11.405 8.63031Z" />
</svg>
