<svg viewBox="0 0 10 10" fill="none" xmlns="http://www.w3.org/2000/svg">
<path d="M0.0233127 6.15563C0.0233127 5.59438 0.0248752 5.03281 0.0230002 4.47156C0.0208127 3.76 0.29175 3.18156 0.843625 2.72875C1.71769 2.01188 2.58519 1.28719 3.45769 0.56875C4.38425 -0.194062 5.63675 -0.195 6.56394 0.567188C7.45519 1.3 8.34488 2.03438 9.23112 2.77281C9.72206 3.18219 9.98894 3.71375 9.99456 4.35219C10.0055 5.58 10.0108 6.80844 9.9905 8.03594C9.9755 8.94031 9.29331 9.73719 8.41175 9.9325C8.27238 9.96344 8.12613 9.97188 7.98269 9.97469C7.67081 9.98094 7.35894 9.97844 7.04706 9.97625C6.43144 9.97219 6.01519 9.555 6.01237 8.93812C6.01019 8.43531 6.01675 7.93219 6.00894 7.42938C6.00675 7.27938 5.98863 7.12406 5.94456 6.98125C5.80769 6.54 5.41237 6.255 4.98362 6.26844C4.55363 6.28188 4.16675 6.60094 4.05706 7.04531C4.02675 7.16875 4.01519 7.29938 4.01394 7.42688C4.00925 7.92594 4.013 8.425 4.01175 8.92375C4.00988 9.56063 3.59425 9.97406 2.9555 9.97594C2.65519 9.97688 2.35519 9.97125 2.05488 9.97688C0.932375 9.99781 0.0698751 9.07 0.0314376 8.01437C0.0089376 7.39531 0.0273752 6.775 0.0273752 6.155C0.0258127 6.15563 0.0245627 6.15563 0.0233127 6.15563Z" />
</svg>
