<svg viewBox="0 0 18 18" fill="none" xmlns="http://www.w3.org/2000/svg" preserveAspectRatio="xMidYMid meet">
<path fill-rule="evenodd" clip-rule="evenodd" d="M17.0996 15.1536C16.5811 16.7294 14.5494 17.5156 13.0978 17.3845C11.1154 17.2053 8.95828 16.1537 7.32083 14.9957C4.91393 13.2933 2.65935 10.6603 1.34558 7.866C0.417093 5.89151 0.208772 3.46344 1.58974 1.66367C2.10047 0.998411 2.65375 0.643384 3.48256 0.601945C4.63393 0.545947 4.79521 1.20448 5.19057 2.23037C5.48513 2.99754 5.87826 3.78039 6.09778 4.57556C6.50882 6.05951 5.07185 6.12111 4.89041 7.33402C4.77841 8.09896 5.70465 9.12484 6.12354 9.67026C6.93093 10.7325 7.91982 11.6436 9.04452 12.3615C9.68292 12.7636 10.7111 13.4882 11.4413 13.0884C12.5658 12.4724 12.4605 10.5763 14.0319 11.218C14.8462 11.5496 15.6347 12.0278 16.4119 12.4466C17.6137 13.0929 17.5577 13.7626 17.0996 15.1536C17.4423 14.1143 16.7569 16.1929 17.0996 15.1536Z" />
</svg>
