<svg viewBox="0 0 12 12" fill="none" xmlns="http://www.w3.org/2000/svg" preserveAspectRatio="xMidYMid meet">
<path d="M12.0005 3.5291C12.0005 6.34249 12.0005 9.15588 12.0005 11.9693C8.72913 11.9693 5.45806 11.9693 2.18671 11.9693C2.18671 9.14827 2.18671 6.34425 2.18671 3.53642C3.33924 3.53642 4.4862 3.53642 5.64107 3.53642C5.64107 3.77302 5.63873 4.002 5.64195 4.23127C5.64371 4.35572 5.64898 4.48076 5.6645 4.60403C5.77928 5.51206 6.51777 6.21775 7.46328 6.32638C8.3183 6.42448 9.20378 5.88247 9.51827 5.06932C9.61783 4.81193 9.66527 4.54576 9.66292 4.26993C9.66087 4.02601 9.66234 3.7818 9.66234 3.5291C10.4512 3.5291 11.2257 3.5291 12.0005 3.5291ZM10.5976 10.5623C10.5976 10.0089 10.5988 9.46802 10.595 8.9269C10.5947 8.89293 10.5633 8.84988 10.5341 8.82705C10.301 8.64491 10.067 8.46337 9.82866 8.28797C9.40436 7.97553 8.93381 7.83147 8.40322 7.89647C8.0413 7.94098 7.72798 8.09793 7.42755 8.28943C7.36635 8.32867 7.32185 8.3354 7.2668 8.27801C7.20238 8.21066 7.12771 8.15327 7.05743 8.09149C6.72099 7.79662 6.38454 7.50175 6.04692 7.20571C6.02496 7.21801 6.00739 7.22592 5.99158 7.23646C5.21034 7.76265 4.42852 8.28855 3.64992 8.81855C3.61448 8.84286 3.58667 8.90552 3.58637 8.95061C3.58198 9.4569 3.58345 9.96347 3.58403 10.4698C3.58403 10.4996 3.58872 10.5292 3.59135 10.562C5.92686 10.5623 8.25506 10.5623 10.5976 10.5623ZM5.68705 5.98584C5.6891 5.41455 5.21473 4.93726 4.64052 4.93257C4.0704 4.92789 3.59223 5.4005 3.58432 5.97617C3.57671 6.54951 4.06015 7.03617 4.63671 7.035C5.20917 7.03442 5.68529 6.55888 5.68705 5.98584Z" />
<path d="M8.02565 -0.000816345C8.19284 0.0677029 8.37644 0.111333 8.52373 0.209719C8.82299 0.408835 8.95827 0.713073 8.95944 1.06914C8.96295 2.16369 8.96647 3.25824 8.95798 4.35279C8.95241 5.06493 8.35829 5.63563 7.64733 5.63358C6.94164 5.63153 6.35659 5.06258 6.34458 4.35601C6.33638 3.86935 6.34253 3.3821 6.34253 2.89544C6.34253 2.87699 6.34517 2.85825 6.34663 2.83454C6.57766 2.83454 6.80196 2.83454 7.04354 2.83454C7.04354 2.87524 7.04354 2.91623 7.04354 2.95723C7.04354 3.40904 7.03856 3.86086 7.045 4.31268C7.05203 4.80344 7.55684 5.09128 7.96591 4.84092C8.17381 4.71384 8.2599 4.51911 8.25961 4.2793C8.25843 3.44184 8.25931 2.60438 8.25931 1.76692C8.25931 1.54087 8.26048 1.31511 8.25902 1.08905C8.25756 0.860653 8.11495 0.703117 7.91086 0.701946C7.70647 0.700482 7.56007 0.858017 7.55831 1.08466C7.55655 1.31013 7.55802 1.5353 7.55802 1.76868C7.32376 1.76868 7.09654 1.76868 6.85467 1.76868C6.87546 1.42286 6.80343 1.07353 6.91147 0.737084C7.04031 0.336217 7.32318 0.098156 7.73751 0.0182168C7.75596 0.014703 7.77353 0.00591846 7.79168 -0.00023071C7.86957 -0.000816345 7.94746 -0.000816345 8.02565 -0.000816345Z" />
<path d="M6.15038 1.39748C6.15038 1.64579 6.15038 1.87829 6.15038 2.12367C5.98347 2.12367 5.81832 2.12367 5.64468 2.12367C5.64468 2.36085 5.64468 2.58515 5.64468 2.82204C4.25585 2.82204 2.87551 2.82204 1.48287 2.82204C1.48287 4.84599 1.48287 6.85736 1.48287 8.87428C1.00177 8.91235 0.558737 8.87868 0.24308 8.46053C0.0966709 8.26669 0.0304942 8.0462 0.0302014 7.80667C0.0290301 5.71888 0.0269804 3.6308 0.0310798 1.54272C0.0322511 0.929267 0.479383 0.472472 1.0902 0.468958C2.44975 0.461345 3.8093 0.465737 5.16856 0.469251C5.21336 0.469251 5.27046 0.503218 5.30092 0.538942C5.51292 0.788129 5.72052 1.04083 5.92637 1.295C5.98289 1.36527 6.03706 1.42706 6.15038 1.39748Z" />
<path d="M10.5906 2.82374C10.2817 2.82374 9.97976 2.82374 9.66966 2.82374C9.66966 2.35729 9.66966 1.89317 9.66966 1.42876C10.2477 1.40592 10.6491 2.0062 10.5906 2.82374Z" />
<path d="M5.98632 8.08681C6.41002 8.4581 6.83139 8.82734 7.26095 9.20361C7.46212 9.08356 7.66299 8.96672 7.86064 8.84491C8.08845 8.70436 8.32417 8.58987 8.59883 8.58225C8.90307 8.57347 9.17217 8.6701 9.41228 8.85311C9.55166 8.9594 9.69221 9.06423 9.82955 9.17257C9.85707 9.19424 9.89133 9.22997 9.89192 9.26013C9.89748 9.45778 9.89484 9.65543 9.89484 9.85923C8.02374 9.85923 6.16318 9.85923 4.28505 9.85923C4.28505 9.6607 4.28358 9.46012 4.2871 9.25954C4.28739 9.23904 4.31433 9.21386 4.33483 9.2001C4.88327 8.82968 5.43172 8.46015 5.98632 8.08681Z" />
<path d="M4.98575 5.98379C4.98604 6.17442 4.82704 6.33371 4.63642 6.334C4.4458 6.33429 4.2865 6.17529 4.28621 5.98467C4.28592 5.79405 4.44492 5.63475 4.63554 5.63446C4.82617 5.63417 4.98546 5.79317 4.98575 5.98379Z" />
</svg>
