<svg width="14" height="15" viewBox="0 0 14 15" fill="none" xmlns="http://www.w3.org/2000/svg">
<path d="M10.7084 14.0283C8.036 14.0283 5.36329 14.0283 2.69092 14.0283C2.69024 14.0102 2.68921 13.992 2.68921 13.9734C2.68921 10.3624 2.68921 6.75095 2.68955 3.13988C2.68955 3.10042 2.69436 3.06096 2.6971 3.02185C5.37084 3.02185 8.03463 3.02185 10.7073 3.02185C10.7073 3.09081 10.7073 3.14982 10.7073 3.20849C10.7077 6.81511 10.708 10.4217 10.7084 14.0283ZM9.37922 8.55323C7.58758 8.55323 5.80348 8.55323 4.02042 8.55323C4.02042 8.82839 4.02042 9.09429 4.02042 9.3571C5.81275 9.3571 7.59375 9.3571 9.37922 9.3571C9.37922 9.08503 9.37922 8.82256 9.37922 8.55323ZM9.37922 10.0128C7.58723 10.0128 5.80245 10.0128 4.02042 10.0128C4.02042 10.2886 4.02042 10.5548 4.02042 10.8159C5.81309 10.8159 7.59409 10.8159 9.37922 10.8159C9.37922 10.5439 9.37922 10.2814 9.37922 10.0128ZM9.37922 11.4809C7.58689 11.4809 5.80245 11.4809 4.01767 11.4809C4.01767 11.7543 4.01767 12.0164 4.01767 12.2827C5.80829 12.2827 7.59032 12.2827 9.37922 12.2827C9.37922 12.0116 9.37922 11.7495 9.37922 11.4809ZM6.48384 4.94318C6.48521 4.97543 6.48315 4.98538 6.48658 4.99293C6.83414 5.81602 7.18135 6.63944 7.53371 7.46047C7.54881 7.49615 7.61297 7.53012 7.65551 7.53149C7.87029 7.5387 8.08575 7.53012 8.30053 7.53698C8.39179 7.54007 8.43502 7.51262 8.47139 7.42616C8.80042 6.63979 9.13528 5.85582 9.46808 5.07081C9.48318 5.03513 9.4921 4.99705 9.50959 4.9425C9.26428 4.9425 9.03647 4.95004 8.80968 4.93941C8.69303 4.93392 8.64225 4.97818 8.60039 5.08076C8.41752 5.53228 8.22642 5.98036 8.02948 6.45143C8.00101 6.38658 7.98042 6.34198 7.96189 6.29669C7.79035 5.87915 7.62051 5.46091 7.44519 5.04508C7.42769 5.00357 7.37726 4.94833 7.34089 4.9473C7.05784 4.93941 6.77513 4.94318 6.48384 4.94318ZM5.94827 5.88841C6.12668 5.72956 6.30577 5.56967 6.49345 5.40259C6.44267 5.34769 6.40287 5.29863 6.35689 5.25574C5.90641 4.83339 5.13959 4.76374 4.53712 5.08968C3.75177 5.51444 3.65399 6.72179 4.36042 7.26696C4.77797 7.58913 5.24767 7.65123 5.74962 7.54247C6.04914 7.47762 6.29617 7.32632 6.49139 7.07449C6.30474 6.90809 6.12599 6.74889 5.94861 6.59107C5.55714 6.93245 5.18145 6.97328 4.93305 6.71046C4.71141 6.47579 4.71381 5.99683 4.93785 5.76592C5.1962 5.49968 5.55748 5.54188 5.94827 5.88841Z" />
<path d="M11.5297 13.1052C11.5297 9.4629 11.5297 5.83467 11.5297 2.19752C8.30601 2.19752 5.09259 2.19752 1.86612 2.19752C1.86612 5.58902 1.86612 8.97468 1.86612 12.3734C1.60056 12.3926 1.34667 12.4111 1.06739 12.4314C0.790174 8.49743 0.512953 4.56728 0.23436 0.619286C3.1812 0.4124 6.11226 0.206543 9.05362 0C9.07729 0.315304 9.09993 0.618943 9.12395 0.937335C10.6665 1.10339 12.2056 1.26877 13.7688 1.43688C13.345 5.36223 12.9227 9.27866 12.4983 13.2092C12.1703 13.1742 11.8546 13.1399 11.5297 13.1052Z" />
</svg>
