<svg viewBox="0 0 12 12" fill="none" xmlns="http://www.w3.org/2000/svg" preserveAspectRatio="xMidYMid meet">
<g clip-path="url(#clip0_39_633)">
<path d="M6.32819 0C6.56194 0.0390625 6.79851 0.06625 7.02944 0.119375C8.85726 0.539375 10.2679 2.1225 10.4729 3.97719C10.6741 5.79812 9.79413 7.52656 8.20601 8.39969C7.96694 8.53094 7.83882 8.68906 7.87476 8.96313C7.87757 8.98563 7.87319 9.00906 7.87319 9.00438C7.53101 8.99719 7.19382 8.98531 6.85663 8.98375C6.21226 8.98031 5.56788 8.98031 4.92351 8.98406C4.66007 8.98562 4.39632 9.00062 4.12507 9.00969C4.12507 8.98438 4.12194 8.93375 4.12569 8.88375C4.14038 8.67656 4.04944 8.53906 3.86632 8.4425C3.35632 8.17406 2.91413 7.81813 2.54788 7.37313C1.77132 6.42938 1.41788 5.34656 1.52038 4.12844C1.69163 2.09469 3.13726 0.4875 5.14226 0.085625C5.32507 0.0490625 5.51101 0.028125 5.69538 0C5.90632 0 6.11726 0 6.32819 0ZM4.30944 3.30469C4.18882 3.59594 4.08413 3.84906 3.97319 4.11719C3.91444 4.11719 3.83257 4.11531 3.75101 4.1175C3.53819 4.12344 3.37726 4.28281 3.37507 4.48719C3.37288 4.69562 3.53663 4.85969 3.75476 4.86531C3.83632 4.8675 3.91788 4.86562 3.97226 4.86562C4.08507 5.13625 4.19038 5.38938 4.30319 5.66031C4.26382 5.69844 4.20632 5.75094 4.15257 5.80688C3.99757 5.96844 3.99382 6.19156 4.14194 6.34156C4.29038 6.49156 4.51663 6.49219 4.67726 6.33813C4.73569 6.28219 4.78444 6.21594 4.81476 6.18125C5.10444 6.3 5.35851 6.40406 5.62476 6.51344C5.62476 6.57562 5.62257 6.65719 5.62507 6.73875C5.63163 6.94906 5.79476 7.11062 5.99851 7.11125C6.20288 7.11188 6.36632 6.95125 6.37382 6.74062C6.37663 6.65562 6.37444 6.57063 6.37444 6.51531C6.64819 6.40156 6.90194 6.29656 7.17132 6.18469C7.21163 6.22625 7.26382 6.28406 7.32007 6.3375C7.48194 6.49125 7.70663 6.49281 7.85569 6.34344C8.00476 6.19406 8.00413 5.96938 7.84694 5.80969C7.79038 5.75219 7.72007 5.70781 7.65601 5.6575C7.67351 5.65031 7.69101 5.64313 7.70851 5.63594C7.81257 5.3825 7.91663 5.12937 8.02476 4.86625C8.09101 4.86625 8.17288 4.86875 8.25476 4.86562C8.46538 4.85812 8.62569 4.69406 8.62444 4.48969C8.62319 4.28625 8.46132 4.12437 8.25007 4.11844C8.16851 4.11594 8.08663 4.11812 8.02632 4.11812C7.91476 3.84812 7.80851 3.59188 7.69476 3.31687C7.72913 3.28594 7.78069 3.24406 7.82726 3.19719C8.00288 3.02 8.01257 2.7925 7.85288 2.6375C7.69538 2.48438 7.47194 2.49406 7.30163 2.6675C7.25069 2.71938 7.21476 2.78594 7.17194 2.84594C7.16257 2.82594 7.15288 2.80594 7.14351 2.78562C6.89257 2.6825 6.64194 2.57969 6.37476 2.47C6.37476 2.40969 6.37757 2.32406 6.37413 2.23906C6.36601 2.02969 6.19882 1.87031 5.99444 1.87312C5.79413 1.87594 5.63382 2.03312 5.62601 2.23781C5.62257 2.32313 5.62538 2.40844 5.62538 2.46937C5.35569 2.58062 5.10194 2.68562 4.82538 2.8C4.78788 2.76031 4.73444 2.69875 4.67507 2.64313C4.51757 2.49469 4.29569 2.49344 4.14788 2.63719C3.99663 2.78437 3.99413 3.01188 4.14819 3.17094C4.20476 3.22781 4.27288 3.27437 4.30944 3.30469Z" />
<path d="M6.83594e-05 4.39787C0.0910059 4.18412 0.253193 4.09568 0.483193 4.11599C0.576318 4.12412 0.670693 4.11412 0.764131 4.11849C0.966943 4.12755 1.12444 4.29255 1.12444 4.4913C1.12444 4.69068 0.968193 4.85599 0.764443 4.86412C0.631943 4.86943 0.498818 4.86849 0.366318 4.86443C0.178818 4.85912 0.0728809 4.74224 -0.000244141 4.58474C6.83594e-05 4.52255 6.83594e-05 4.46005 6.83594e-05 4.39787Z" />
<path d="M12.0001 4.58474C11.9085 4.79786 11.7467 4.88661 11.5167 4.86661C11.4235 4.85849 11.3292 4.86849 11.2357 4.86411C11.0323 4.85442 10.8754 4.69005 10.8757 4.49099C10.8757 4.29099 11.0317 4.1263 11.2357 4.11849C11.3682 4.11349 11.5014 4.11505 11.6339 4.11786C11.8232 4.12192 11.9254 4.24286 12.0001 4.39786C12.0001 4.46005 12.0001 4.52255 12.0001 4.58474Z" />
<path d="M6.00596 9.73093C6.48971 9.73093 6.97377 9.7303 7.45752 9.73124C7.72096 9.73155 7.87627 9.88187 7.87377 10.1419C7.87096 10.4453 7.88721 10.7519 7.84877 11.0509C7.78283 11.5625 7.32439 11.9609 6.80721 11.9722C6.26908 11.9841 5.73002 11.985 5.19189 11.9719C4.61939 11.9581 4.14408 11.4719 4.12752 10.9C4.12002 10.6394 4.12346 10.3781 4.12564 10.1172C4.12783 9.88593 4.28471 9.73187 4.51908 9.73124C5.01502 9.72999 5.51064 9.73093 6.00596 9.73093Z" />
<path d="M10.3529 0.525059C10.3501 0.750684 9.93665 1.16318 9.71196 1.15912C9.55884 1.15631 9.44071 1.08631 9.37571 0.945997C9.31133 0.807559 9.32196 0.668184 9.42352 0.552247C9.52321 0.438184 9.63134 0.329434 9.74634 0.230997C9.8629 0.130997 10.0023 0.120997 10.141 0.187247C10.2816 0.254122 10.3448 0.373497 10.3529 0.525059Z" />
<path d="M9.71698 7.82253C9.93854 7.81878 10.3589 8.2341 10.3514 8.46441C10.3467 8.61628 10.2757 8.73347 10.1345 8.79816C9.99416 8.86191 9.85635 8.84816 9.74073 8.74722C9.62948 8.65003 9.52385 8.54472 9.42635 8.43378C9.32448 8.31816 9.31135 8.18003 9.37416 8.04066C9.4376 7.89972 9.55448 7.83097 9.71698 7.82253Z" />
<path d="M2.66351 0.751913C2.65351 0.942538 2.58632 1.05973 2.44507 1.12348C2.3057 1.18629 2.16695 1.1741 2.05101 1.07254C1.93976 0.975038 1.83445 0.870038 1.73632 0.759413C1.61101 0.617851 1.6207 0.405663 1.74757 0.269101C1.87507 0.131288 2.0907 0.100038 2.23539 0.218476C2.36445 0.324101 2.48164 0.446288 2.59007 0.572851C2.63695 0.627851 2.64851 0.712851 2.66351 0.751913Z" />
<path d="M2.05539 8.83809C1.86601 8.82465 1.74882 8.75778 1.68445 8.61684C1.62039 8.47684 1.63507 8.33934 1.73632 8.22403C1.83382 8.11309 1.93945 8.00809 2.0507 7.91059C2.19195 7.78653 2.40695 7.79653 2.54195 7.92278C2.68226 8.05403 2.7082 8.27403 2.58476 8.41996C2.48195 8.54121 2.36695 8.65496 2.24507 8.75684C2.18632 8.80559 2.09882 8.82028 2.05539 8.83809Z" />
<path d="M7.2825 4.48628C7.28782 5.18597 6.71125 5.76597 6.00469 5.7716C5.30407 5.77691 4.72188 5.20034 4.71719 4.49597C4.7125 3.79628 5.28938 3.21597 5.995 3.21097C6.69688 3.20597 7.27719 3.78097 7.2825 4.48628Z" />
</g>
<defs>
<clipPath id="clip0_39_633">
<rect width="12" height="12" />
</clipPath>
</defs>
</svg>
