<svg viewBox="0 0 16 16" fill="none" xmlns="http://www.w3.org/2000/svg" preserveAspectRatio="xMidYMid meet">
<path d="M8.86767 11.4952C9.29852 11.5364 9.73244 11.5772 10.166 11.6196C10.4001 11.6423 10.6361 11.6546 10.8671 11.695C11.5652 11.8167 12.0526 12.3638 12.0711 13.0719C12.0892 13.7534 12.078 14.4356 12.0757 15.1175C12.0749 15.2923 11.9875 15.3651 11.7958 15.3655C10.6673 15.3659 9.53877 15.3659 8.40988 15.3659C7.03149 15.3659 5.6531 15.3659 4.2751 15.3659C4.01251 15.3659 3.9536 15.3069 3.9536 15.0459C3.9536 14.4168 3.95206 13.7876 3.95399 13.1585C3.9563 12.3353 4.50919 11.7447 5.33161 11.6727C5.94302 11.6192 6.55329 11.5553 7.18203 11.494C7.18203 11.4043 7.18858 11.3189 7.17895 11.2349C7.1751 11.2007 7.14392 11.1579 7.11273 11.1398C6.4166 10.7352 6.08548 10.128 6.10974 9.32751C6.11937 9.01179 6.10204 8.68683 6.17211 8.38343C6.39235 7.42857 7.29485 6.83101 8.27704 6.95267C9.19764 7.06703 9.91802 7.88366 9.91802 8.83121C9.91802 9.18967 9.92033 9.55467 9.85757 9.90543C9.76748 10.4102 9.461 10.7918 9.03169 11.0705C8.82186 11.2068 8.813 11.2234 8.86767 11.4952ZM11.6375 14.9292C11.6375 14.282 11.661 13.6479 11.6298 13.0164C11.606 12.5363 11.241 12.1775 10.7805 12.1162C10.4474 12.072 10.1113 12.0527 9.7771 12.0177C9.69779 12.0092 9.66198 12.0327 9.62617 12.1066C9.29967 12.7831 8.76025 13.1547 8.00676 13.1516C7.26058 13.1485 6.72385 12.7804 6.40159 12.1078C6.36655 12.035 6.3319 12.0084 6.25104 12.0173C5.95034 12.0504 5.64925 12.0777 5.34816 12.1051C4.77139 12.1574 4.38791 12.5683 4.38598 13.1439C4.38406 13.6964 4.38521 14.2485 4.38598 14.801C4.38598 14.8422 4.39137 14.8838 4.39407 14.9242C4.66205 14.9242 4.91886 14.9242 5.18838 14.9242C5.18838 14.8638 5.18838 14.8118 5.18838 14.7602C5.18838 14.3521 5.18684 13.9436 5.18992 13.5354C5.19069 13.3961 5.27308 13.304 5.39321 13.3037C5.51565 13.3033 5.59034 13.3703 5.6146 13.4889C5.62307 13.5304 5.62037 13.5747 5.62037 13.6178C5.62076 14.0021 5.62076 14.3863 5.62076 14.7706C5.62076 14.8214 5.62076 14.8723 5.62076 14.9231C7.22708 14.9231 8.81415 14.9231 10.4097 14.9231C10.4097 14.4672 10.4093 14.021 10.4101 13.5751C10.4105 13.4042 10.4867 13.3064 10.6192 13.3021C10.757 13.2979 10.8413 13.3999 10.8417 13.5774C10.8425 13.9759 10.8421 14.3748 10.8421 14.7733C10.8421 14.8241 10.8421 14.8746 10.8421 14.9292C11.1158 14.9292 11.3692 14.9292 11.6375 14.9292ZM8.57813 8.57786C8.28783 8.80849 7.9825 9.00332 7.62866 9.08533C7.27714 9.16695 6.91675 9.21123 6.54366 9.27476C6.49862 9.8446 6.68728 10.3455 7.19859 10.682C7.71837 11.0239 8.26934 11.0324 8.79798 10.7013C9.35704 10.3513 9.538 9.81418 9.48102 9.17427C9.11447 9.07763 8.8103 8.88896 8.57813 8.57786ZM6.55329 8.79463C7.26366 8.81465 7.89087 8.63716 8.40757 8.14279C8.61048 7.94873 8.72791 7.96606 8.86151 8.21017C8.99589 8.45581 9.19571 8.62176 9.46485 8.71455C9.4918 8.02882 8.78104 7.37351 8.02023 7.37043C7.22747 7.36696 6.51979 8.04576 6.55329 8.79463ZM9.20457 11.9642C9.01206 11.9449 8.8311 11.9264 8.65013 11.9083C8.48611 11.8922 8.41989 11.8236 8.41604 11.66C8.41373 11.5526 8.41565 11.4451 8.41565 11.3485C8.13613 11.3485 7.88047 11.3485 7.61442 11.3485C7.61442 11.4351 7.6148 11.5256 7.61442 11.6161C7.61326 11.8271 7.55628 11.8902 7.35029 11.9114C7.17626 11.9295 7.00184 11.948 6.82435 11.9669C6.99376 12.4077 7.49544 12.723 8.01215 12.7246C8.52693 12.7257 9.02669 12.4135 9.20457 11.9642Z" />
<path d="M8.01255 0.667373C10.0728 0.667373 12.1327 0.667373 14.193 0.667373C14.9218 0.667373 15.3665 1.11362 15.3669 1.84478C15.3673 3.01179 15.3673 4.1788 15.3669 5.34581C15.3665 6.04078 14.9257 6.49087 14.2311 6.50473C14.039 6.50858 13.8468 6.51089 13.6551 6.50319C13.5569 6.49934 13.498 6.53515 13.441 6.61216C13.1846 6.95983 12.9228 7.30366 12.6617 7.64787C12.5062 7.85309 12.3726 7.85271 12.2166 7.6471C11.9641 7.31444 11.7092 6.98371 11.4635 6.64604C11.3884 6.54285 11.3091 6.50204 11.1794 6.50242C8.08185 6.50627 4.98433 6.50473 1.88719 6.50627C1.59688 6.50627 1.3239 6.462 1.08903 6.27526C0.825288 6.06542 0.673973 5.79205 0.672433 5.4567C0.665888 4.20806 0.663578 2.95943 0.672048 1.71079C0.676283 1.12363 1.16642 0.668913 1.77437 0.668143C3.50314 0.665833 5.2319 0.667373 6.96066 0.667373C7.31142 0.667373 7.66217 0.667373 8.01255 0.667373ZM12.4392 7.22512C12.6941 6.88706 12.9416 6.56903 13.1769 6.24215C13.2685 6.1147 13.3744 6.06388 13.5288 6.07043C13.754 6.08005 13.98 6.07466 14.2057 6.07235C14.68 6.06773 14.9341 5.8113 14.9345 5.33926C14.9349 4.18188 14.9345 3.02488 14.9345 1.8675C14.9345 1.34425 14.6908 1.09937 14.1706 1.09937C10.0697 1.09937 5.96922 1.09937 1.86832 1.09937C1.82019 1.09937 1.77206 1.09822 1.72432 1.10053C1.38704 1.11516 1.1052 1.38313 1.10366 1.71965C1.09789 2.96328 1.09827 4.20691 1.10366 5.45054C1.10482 5.7678 1.35354 6.02499 1.66734 6.06119C1.75281 6.0712 1.83983 6.07197 1.92607 6.07197C5.05671 6.07235 8.18773 6.07389 11.3184 6.06889C11.502 6.0685 11.621 6.12702 11.7261 6.27526C11.951 6.59213 12.1916 6.89746 12.4392 7.22512Z" />
<path d="M2.40097 5.16182C2.45333 4.85996 2.50531 4.54809 2.56306 4.23699C2.57962 4.14882 2.56499 4.08606 2.49568 4.02138C2.27814 3.81847 2.06946 3.60594 1.855 3.39956C1.77761 3.32487 1.72332 3.24594 1.76067 3.13313C1.7984 3.01916 1.89504 2.99182 1.99823 2.97719C2.28777 2.93561 2.57692 2.89172 2.86723 2.85629C2.96464 2.84436 3.01778 2.80124 3.05859 2.71384C3.18218 2.44894 3.3154 2.18828 3.44361 1.92569C3.4902 1.8302 3.54719 1.75204 3.66731 1.75281C3.78706 1.7532 3.84404 1.83097 3.89063 1.92646C4.02077 2.19367 4.14782 2.4628 4.28759 2.72462C4.31762 2.78083 4.39193 2.83743 4.4543 2.84821C4.7423 2.89942 5.03261 2.93484 5.32254 2.97565C5.43034 2.99067 5.53276 3.01415 5.5728 3.13544C5.61284 3.25634 5.54662 3.33565 5.4673 3.41189C5.2567 3.61556 5.04378 3.81693 4.84125 4.02792C4.79698 4.07413 4.7654 4.1623 4.77426 4.22429C4.81623 4.52307 4.88245 4.81877 4.92057 5.11832C4.93097 5.20033 4.89631 5.30929 4.84318 5.3732C4.77542 5.4556 4.67069 5.42556 4.57867 5.37628C4.32109 5.23806 4.05888 5.10792 3.80438 4.96392C3.70428 4.90732 3.62573 4.9131 3.5287 4.96662C3.26419 5.11254 2.99699 5.25346 2.72708 5.3886C2.55267 5.476 2.38903 5.36319 2.40097 5.16182ZM2.46257 3.34836C2.62159 3.51661 2.76982 3.67909 2.92499 3.83503C3.01046 3.92089 3.04357 4.01021 3.01855 4.13304C2.97465 4.34673 2.94501 4.56311 2.90419 4.8076C3.1071 4.7021 3.28575 4.62048 3.45208 4.51883C3.6007 4.42797 3.73046 4.42527 3.88023 4.51652C4.0481 4.61894 4.22868 4.70095 4.43043 4.80568C4.39039 4.56311 4.36459 4.35366 4.31878 4.14882C4.2872 4.00752 4.33033 3.91203 4.42889 3.81655C4.58252 3.66793 4.72536 3.50891 4.87552 3.35144C4.75886 3.33296 4.64104 3.31447 4.52322 3.29561C3.97264 3.20782 4.09893 3.31717 3.83287 2.78737C3.78128 2.68457 3.72738 2.58293 3.66423 2.46049C3.55412 2.68265 3.45401 2.87362 3.36468 3.0696C3.3104 3.18857 3.22415 3.24286 3.0994 3.25865C2.88571 3.28521 2.67241 3.31832 2.46257 3.34836Z" />
<path d="M6.74747 5.16647C6.79753 4.87308 6.84604 4.55544 6.90803 4.2401C6.92728 4.14153 6.90379 4.0807 6.83372 4.01486C6.61695 3.8108 6.40057 3.60596 6.19804 3.38843C6.14183 3.32836 6.09409 3.20939 6.11603 3.14162C6.13836 3.07232 6.24579 3.00109 6.32626 2.98569C6.61772 2.92986 6.91342 2.89367 7.20873 2.85709C7.30422 2.84516 7.3612 2.80819 7.40317 2.71848C7.52638 2.45359 7.65998 2.19331 7.78781 1.93034C7.83401 1.83562 7.88869 1.75477 8.00881 1.75284C8.13587 1.75091 8.19247 1.83524 8.24098 1.93534C8.37074 2.20255 8.49857 2.4713 8.63794 2.7335C8.66605 2.78625 8.7369 2.83822 8.7958 2.84824C9.07918 2.8979 9.36487 2.9341 9.64979 2.97375C9.76145 2.98915 9.87426 3.00456 9.917 3.13161C9.95896 3.25598 9.89005 3.33953 9.80572 3.42C9.59743 3.61867 9.39567 3.82466 9.18468 4.02064C9.11538 4.08532 9.10036 4.14923 9.11653 4.23663C9.16889 4.52425 9.21317 4.81379 9.26823 5.10102C9.28864 5.20844 9.28671 5.30392 9.197 5.37554C9.09882 5.45408 9.00102 5.41866 8.90246 5.36553C8.64488 5.2273 8.38306 5.09601 8.1274 4.95432C8.04655 4.90966 7.98571 4.90773 7.9037 4.95278C7.63072 5.10333 7.35466 5.24771 7.07628 5.38824C6.90495 5.4741 6.74632 5.37477 6.74747 5.16647ZM8.77655 4.80724C8.73844 4.57815 8.71918 4.3814 8.67106 4.19236C8.62678 4.01871 8.67876 3.90128 8.80505 3.78577C8.95135 3.65178 9.08111 3.4997 9.22241 3.35069C9.0195 3.32066 8.82122 3.28408 8.62139 3.26368C8.46853 3.24828 8.36419 3.19052 8.30105 3.0419C8.21904 2.85016 8.11816 2.6665 8.01305 2.45513C7.90832 2.66727 7.81053 2.84747 7.7289 3.03497C7.66614 3.17936 7.56873 3.24789 7.41241 3.26329C7.20719 3.2837 7.0039 3.32182 6.80946 3.35108C6.96655 3.51702 7.11132 3.67758 7.26418 3.82928C7.35427 3.9186 7.39008 4.00986 7.36313 4.13845C7.31846 4.3506 7.29074 4.56622 7.25147 4.80763C7.47286 4.6925 7.66614 4.59779 7.85288 4.49191C7.96608 4.42799 8.06541 4.43069 8.17745 4.49268C8.36458 4.59779 8.55709 4.69289 8.77655 4.80724Z" />
<path d="M11.0992 5.14835C11.1493 4.85303 11.1994 4.53539 11.2594 4.22005C11.2752 4.13804 11.2583 4.08722 11.1997 4.03178C10.9807 3.82348 10.76 3.61556 10.5529 3.39571C10.4951 3.3345 10.4497 3.22861 10.4563 3.14737C10.4655 3.02725 10.5818 2.99221 10.6927 2.97681C10.9826 2.93638 11.2717 2.89172 11.562 2.85629C11.6591 2.84436 11.7122 2.80124 11.753 2.71384C11.877 2.44894 12.011 2.18866 12.1388 1.92569C12.1854 1.82982 12.2432 1.75204 12.3625 1.75281C12.4815 1.75358 12.5385 1.83097 12.5851 1.92723C12.7125 2.19059 12.8476 2.45009 12.9705 2.71538C13.0121 2.80586 13.0683 2.84397 13.1638 2.85591C13.4541 2.8921 13.7432 2.93599 14.0331 2.97719C14.1371 2.99182 14.2337 3.02185 14.268 3.13621C14.3011 3.24671 14.2503 3.32872 14.1717 3.4038C13.96 3.60594 13.7544 3.81501 13.5391 4.01368C13.466 4.08144 13.4491 4.14767 13.466 4.24084C13.5207 4.53808 13.5777 4.83532 13.6154 5.13449C13.625 5.21149 13.5915 5.32854 13.5353 5.36974C13.4795 5.41093 13.3566 5.40978 13.287 5.37705C13.0094 5.24653 12.7391 5.1006 12.4711 4.95121C12.3879 4.90463 12.3275 4.91079 12.2478 4.95468C11.9786 5.10214 11.7068 5.2446 11.4331 5.38321C11.2463 5.47831 11.0889 5.37513 11.0992 5.14835ZM11.1574 3.34874C11.3168 3.51815 11.465 3.68102 11.6202 3.83734C11.7018 3.91935 11.7357 4.00444 11.7134 4.1211C11.671 4.33941 11.6398 4.56003 11.599 4.8076C11.8165 4.6944 12.0094 4.60046 12.1954 4.49419C12.3132 4.42681 12.4168 4.43066 12.5331 4.49573C12.7202 4.60046 12.9123 4.69556 13.1249 4.80645C13.0887 4.58775 13.069 4.39216 13.0217 4.20273C12.9778 4.02677 13.0221 3.90202 13.1557 3.78266C13.3031 3.65099 13.4321 3.49852 13.5746 3.34951C13.3628 3.31871 13.1595 3.28329 12.9547 3.26134C12.8126 3.24594 12.716 3.18934 12.6559 3.05381C12.5689 2.85822 12.4676 2.66917 12.3617 2.45548C12.2539 2.67225 12.1519 2.86168 12.0645 3.05766C12.0064 3.18742 11.914 3.2444 11.7777 3.26057C11.569 3.28483 11.3614 3.31948 11.1574 3.34874Z" />
</svg>
